<svg width="71" height="113" viewBox="0 0 71 113" fill="none" xmlns="http://www.w3.org/2000/svg">
<mask id="path-1-inside-1_24_39" fill="white">
<path fill-rule="evenodd" clip-rule="evenodd" d="M33.5 0H37.5L39.5 3L39 6L37 8L33 7.5L31.5 5.5V2.5L33.5 0ZM1 12.5L1.5 12H4L4.5 12.5L5 13L5.5 14L6 16L5.5 16.5L5 17.5L4 18.5H2.5L1.5 18L0.5 17.5L0 16.5V14.5V14V13.5L0.5 13L1 12.5ZM21.5 17L22.5 16.5L23 16L24.3745 16.5L25 17.5V19L24 19.5L23 20L22 19L21.5 17ZM46.5 17L47.5 16H49L50 17V19L49 20H47.5L46.5 19V17ZM66.5 12.5L65.5 14V17L67 18.5H69L70 17.5L70.5 17V14L69 12.5H66.5ZM12.9328 35.2785L5 22.7848L19.874 28.1013H20.3697L23.3445 24.6456H23.8403L27.3109 28.1013H28.3025L34.2521 18H34.7479L41.1933 28.1013L46.1513 24.6456L48.6303 28.1013L64 22.519L55.0756 35.2785H12.9328ZM13.9244 39V37.1392H55.0756V39H13.9244ZM7 57H11.5V111.5H28V87.5H32.5L49.5 109.5L53 111.5L55 112.5L56.5 113H60.5L61.5 111.5L67 104V103.5L66.5 103H65.5L64.5 102.5L61.5 99.5L59 97L50.5 86V85.5L53.5 84.5L55.5 83.5L58 82L60.5 79.5L62 77.5L63 75L63.5 73V72L64 71V61L63.5 60L63 57.5L62 55.5L60.5 53L58.5 51L56.5 49.5L54 48L52 47L50.5 46.5L47.5 46L43.5 45.5H7V57Z"/>
</mask>
<path fill-rule="evenodd" clip-rule="evenodd" d="M33.5 0H37.5L39.5 3L39 6L37 8L33 7.5L31.5 5.5V2.5L33.5 0ZM1 12.5L1.5 12H4L4.5 12.5L5 13L5.5 14L6 16L5.5 16.5L5 17.5L4 18.5H2.5L1.5 18L0.5 17.5L0 16.5V14.5V14V13.5L0.5 13L1 12.5ZM21.5 17L22.5 16.5L23 16L24.3745 16.5L25 17.5V19L24 19.5L23 20L22 19L21.5 17ZM46.5 17L47.5 16H49L50 17V19L49 20H47.5L46.5 19V17ZM66.5 12.5L65.5 14V17L67 18.5H69L70 17.5L70.5 17V14L69 12.5H66.5ZM12.9328 35.2785L5 22.7848L19.874 28.1013H20.3697L23.3445 24.6456H23.8403L27.3109 28.1013H28.3025L34.2521 18H34.7479L41.1933 28.1013L46.1513 24.6456L48.6303 28.1013L64 22.519L55.0756 35.2785H12.9328ZM13.9244 39V37.1392H55.0756V39H13.9244ZM7 57H11.5V111.5H28V87.5H32.5L49.5 109.5L53 111.5L55 112.5L56.5 113H60.5L61.5 111.5L67 104V103.5L66.5 103H65.5L64.5 102.5L61.5 99.5L59 97L50.5 86V85.5L53.5 84.5L55.5 83.5L58 82L60.5 79.5L62 77.5L63 75L63.5 73V72L64 71V61L63.5 60L63 57.5L62 55.5L60.5 53L58.5 51L56.5 49.5L54 48L52 47L50.5 46.5L47.5 46L43.5 45.5H7V57Z" fill="#3E636A"/>
<path d="M6.75 45V45.5H7.25V45H6.75ZM37.5 0L37.916 -0.27735L37.7676 -0.5H37.5V0ZM33.5 0V-0.5H33.2597L33.1096 -0.312348L33.5 0ZM39.5 3L39.9932 3.0822L40.0257 2.88717L39.916 2.72265L39.5 3ZM39 6L39.3536 6.35355L39.4669 6.24025L39.4932 6.0822L39 6ZM37 8L36.938 8.49614L37.1806 8.52647L37.3536 8.35355L37 8ZM33 7.5L32.6 7.8L32.7274 7.96981L32.938 7.99614L33 7.5ZM31.5 5.5H31V5.66667L31.1 5.8L31.5 5.5ZM31.5 2.5L31.1096 2.18765L31 2.32461V2.5H31.5ZM1.5 12V11.5H1.29289L1.14645 11.6464L1.5 12ZM4 12L4.35355 11.6464L4.20711 11.5H4V12ZM5 13L5.44721 12.7764L5.41093 12.7038L5.35355 12.6464L5 13ZM5.5 14L5.98507 13.8787L5.97176 13.8255L5.94721 13.7764L5.5 14ZM6 16L6.35355 16.3536L6.55373 16.1534L6.48507 15.8787L6 16ZM5.5 16.5L5.14645 16.1464L5.08907 16.2038L5.05279 16.2764L5.5 16.5ZM5 17.5L5.35355 17.8536L5.41093 17.7962L5.44721 17.7236L5 17.5ZM4 18.5V19H4.20711L4.35355 18.8536L4 18.5ZM2.5 18.5L2.27639 18.9472L2.38197 19H2.5V18.5ZM0.5 17.5L0.0527864 17.7236L0.127322 17.8727L0.276393 17.9472L0.5 17.5ZM0 16.5H-0.5V16.618L-0.447214 16.7236L0 16.5ZM0 13.5L-0.353553 13.1464L-0.5 13.2929V13.5H0ZM22.5 16.5L22.7236 16.9472L22.7962 16.9109L22.8536 16.8536L22.5 16.5ZM21.5 17L21.2764 16.5528L20.9177 16.7322L21.0149 17.1213L21.5 17ZM23 16L23.1709 15.5301L22.8716 15.4213L22.6464 15.6464L23 16ZM24.3745 16.5L24.7984 16.2348L24.7071 16.089L24.5454 16.0301L24.3745 16.5ZM25 17.5H25.5V17.3565L25.4239 17.2348L25 17.5ZM25 19L25.2236 19.4472L25.5 19.309V19H25ZM23 20L22.6464 20.3536L22.9013 20.6084L23.2236 20.4472L23 20ZM22 19L21.5149 19.1213L21.5485 19.2556L21.6464 19.3536L22 19ZM47.5 16V15.5H47.2929L47.1464 15.6464L47.5 16ZM46.5 17L46.1464 16.6464L46 16.7929V17H46.5ZM49 16L49.3536 15.6464L49.2071 15.5H49V16ZM50 17H50.5V16.7929L50.3536 16.6464L50 17ZM50 19L50.3536 19.3536L50.5 19.2071V19H50ZM49 20V20.5H49.2071L49.3536 20.3536L49 20ZM47.5 20L47.1464 20.3536L47.2929 20.5H47.5V20ZM46.5 19H46V19.2071L46.1464 19.3536L46.5 19ZM65.5 14L65.084 13.7226L65 13.8486V14H65.5ZM66.5 12.5V12H66.2324L66.084 12.2226L66.5 12.5ZM65.5 17H65V17.2071L65.1464 17.3536L65.5 17ZM67 18.5L66.6464 18.8536L66.7929 19H67V18.5ZM69 18.5V19H69.2071L69.3536 18.8536L69 18.5ZM70.5 17L70.8536 17.3536L71 17.2071V17H70.5ZM70.5 14H71V13.7929L70.8536 13.6464L70.5 14ZM69 12.5L69.3536 12.1464L69.2071 12H69V12.5ZM5 22.7848L5.16829 22.314L3.79773 21.8241L4.5779 23.0528L5 22.7848ZM12.9328 35.2785L12.5107 35.5465L12.658 35.7785H12.9328V35.2785ZM19.874 28.1013L19.7057 28.5721L19.7873 28.6013H19.874V28.1013ZM20.3697 28.1013V28.6013H20.5991L20.7487 28.4275L20.3697 28.1013ZM23.3445 24.6456V24.1456H23.1152L22.9656 24.3194L23.3445 24.6456ZM23.8403 24.6456L24.1931 24.2913L24.0468 24.1456H23.8403V24.6456ZM27.3109 28.1013L26.9581 28.4556L27.1044 28.6013H27.3109V28.1013ZM28.3025 28.1013V28.6013H28.5883L28.7333 28.355L28.3025 28.1013ZM34.2521 18V17.5H33.9663L33.8213 17.7462L34.2521 18ZM34.7479 18L35.1694 17.731L35.022 17.5H34.7479V18ZM41.1933 28.1013L40.7718 28.3702L41.0519 28.8093L41.4792 28.5115L41.1933 28.1013ZM46.1513 24.6456L46.5575 24.3541L46.27 23.9533L45.8654 24.2354L46.1513 24.6456ZM48.6303 28.1013L48.224 28.3927L48.4448 28.7006L48.8009 28.5712L48.6303 28.1013ZM64 22.519L64.4097 22.8056L65.3167 21.5088L63.8293 22.049L64 22.519ZM55.0756 35.2785V35.7785H55.3361L55.4854 35.5651L55.0756 35.2785ZM13.9244 37.1392V36.6392H13.4244V37.1392H13.9244ZM13.9244 39H13.4244V39.5H13.9244V39ZM55.0756 37.1392H55.5756V36.6392H55.0756V37.1392ZM55.0756 39V39.5H55.5756V39H55.0756ZM11.5 57H12V56.5H11.5V57ZM7 57H6.5V57.5H7V57ZM11.5 111.5H11V112H11.5V111.5ZM28 111.5V112H28.5V111.5H28ZM28 87.5V87H27.5V87.5H28ZM32.5 87.5L32.8956 87.1943L32.7455 87H32.5V87.5ZM49.5 109.5L49.1044 109.806L49.1653 109.885L49.2519 109.934L49.5 109.5ZM53 111.5L52.7519 111.934L52.764 111.941L52.7764 111.947L53 111.5ZM55 112.5L54.7764 112.947L54.8082 112.963L54.8419 112.974L55 112.5ZM56.5 113L56.3419 113.474L56.4189 113.5H56.5V113ZM60.5 113V113.5H60.7676L60.916 113.277L60.5 113ZM61.5 111.5L61.0968 111.204L61.0902 111.213L61.084 111.223L61.5 111.5ZM67 104L67.4032 104.296L67.5 104.164V104H67ZM67 103.5H67.5V103.293L67.3536 103.146L67 103.5ZM66.5 103L66.8536 102.646L66.7071 102.5H66.5V103ZM65.5 103L65.2764 103.447L65.382 103.5H65.5V103ZM64.5 102.5L64.1464 102.854L64.2038 102.911L64.2764 102.947L64.5 102.5ZM59 97L58.6044 97.3057L58.6239 97.331L58.6464 97.3536L59 97ZM50.5 86H50V86.1707L50.1044 86.3057L50.5 86ZM50.5 85.5L50.3419 85.0257L50 85.1396V85.5H50.5ZM53.5 84.5L53.6581 84.9743L53.6918 84.9631L53.7236 84.9472L53.5 84.5ZM55.5 83.5L55.7236 83.9472L55.7408 83.9386L55.7572 83.9287L55.5 83.5ZM58 82L58.2572 82.4287L58.31 82.3971L58.3536 82.3536L58 82ZM60.5 79.5L60.8536 79.8536L60.8787 79.8284L60.9 79.8L60.5 79.5ZM62 77.5L62.4 77.8L62.4397 77.7471L62.4642 77.6857L62 77.5ZM63 75L63.4642 75.1857L63.4768 75.1542L63.4851 75.1213L63 75ZM63.5 73L63.9851 73.1213L64 73.0616V73H63.5ZM63.5 72L63.0528 71.7764L63 71.882V72H63.5ZM64 71L64.4472 71.2236L64.5 71.118V71H64ZM64 61H64.5V60.882L64.4472 60.7764L64 61ZM63.5 60L63.0097 60.0981L63.0228 60.1637L63.0528 60.2236L63.5 60ZM63 57.5L63.4903 57.4019L63.4772 57.3363L63.4472 57.2764L63 57.5ZM62 55.5L62.4472 55.2764L62.4386 55.2592L62.4287 55.2428L62 55.5ZM60.5 53L60.9287 52.7428L60.8971 52.69L60.8536 52.6464L60.5 53ZM58.5 51L58.8536 50.6464L58.8284 50.6213L58.8 50.6L58.5 51ZM56.5 49.5L56.8 49.1L56.7794 49.0845L56.7572 49.0713L56.5 49.5ZM54 48L54.2572 47.5713L54.2408 47.5614L54.2236 47.5528L54 48ZM52 47L52.2236 46.5528L52.1918 46.5369L52.1581 46.5257L52 47ZM50.5 46.5L50.6581 46.0257L50.6209 46.0133L50.5822 46.0068L50.5 46.5ZM47.5 46L47.5822 45.5068L47.5721 45.5051L47.562 45.5039L47.5 46ZM43.5 45.5L43.562 45.0039L43.5311 45H43.5V45.5ZM7 45.5V45H6.5V45.5H7ZM37.5 -0.5H33.5V0.5H37.5V-0.5ZM39.916 2.72265L37.916 -0.27735L37.084 0.27735L39.084 3.27735L39.916 2.72265ZM39.4932 6.0822L39.9932 3.0822L39.0068 2.9178L38.5068 5.9178L39.4932 6.0822ZM37.3536 8.35355L39.3536 6.35355L38.6464 5.64645L36.6464 7.64645L37.3536 8.35355ZM32.938 7.99614L36.938 8.49614L37.062 7.50386L33.062 7.00386L32.938 7.99614ZM31.1 5.8L32.6 7.8L33.4 7.2L31.9 5.2L31.1 5.8ZM31 2.5V5.5H32V2.5H31ZM33.1096 -0.312348L31.1096 2.18765L31.8904 2.81235L33.8904 0.312348L33.1096 -0.312348ZM1.14645 11.6464L0.646447 12.1464L1.35355 12.8536L1.85355 12.3536L1.14645 11.6464ZM4 11.5H1.5V12.5H4V11.5ZM4.85355 12.1464L4.35355 11.6464L3.64645 12.3536L4.14645 12.8536L4.85355 12.1464ZM5.35355 12.6464L4.85355 12.1464L4.14645 12.8536L4.64645 13.3536L5.35355 12.6464ZM5.94721 13.7764L5.44721 12.7764L4.55279 13.2236L5.05279 14.2236L5.94721 13.7764ZM6.48507 15.8787L5.98507 13.8787L5.01493 14.1213L5.51493 16.1213L6.48507 15.8787ZM5.85355 16.8536L6.35355 16.3536L5.64645 15.6464L5.14645 16.1464L5.85355 16.8536ZM5.44721 17.7236L5.94721 16.7236L5.05279 16.2764L4.55279 17.2764L5.44721 17.7236ZM4.35355 18.8536L5.35355 17.8536L4.64645 17.1464L3.64645 18.1464L4.35355 18.8536ZM2.5 19H4V18H2.5V19ZM1.27639 18.4472L2.27639 18.9472L2.72361 18.0528L1.72361 17.5528L1.27639 18.4472ZM0.276393 17.9472L1.27639 18.4472L1.72361 17.5528L0.723607 17.0528L0.276393 17.9472ZM-0.447214 16.7236L0.0527864 17.7236L0.947214 17.2764L0.447214 16.2764L-0.447214 16.7236ZM-0.5 14.5V16.5H0.5V14.5H-0.5ZM-0.5 14V14.5H0.5V14H-0.5ZM-0.5 13.5V14H0.5V13.5H-0.5ZM0.146447 12.6464L-0.353553 13.1464L0.353553 13.8536L0.853553 13.3536L0.146447 12.6464ZM0.646447 12.1464L0.146447 12.6464L0.853553 13.3536L1.35355 12.8536L0.646447 12.1464ZM22.2764 16.0528L21.2764 16.5528L21.7236 17.4472L22.7236 16.9472L22.2764 16.0528ZM22.6464 15.6464L22.1464 16.1464L22.8536 16.8536L23.3536 16.3536L22.6464 15.6464ZM24.5454 16.0301L23.1709 15.5301L22.8291 16.4699L24.2036 16.9699L24.5454 16.0301ZM25.4239 17.2348L24.7984 16.2348L23.9506 16.7652L24.5761 17.7652L25.4239 17.2348ZM25.5 19V17.5H24.5V19H25.5ZM24.2236 19.9472L25.2236 19.4472L24.7764 18.5528L23.7764 19.0528L24.2236 19.9472ZM23.2236 20.4472L24.2236 19.9472L23.7764 19.0528L22.7764 19.5528L23.2236 20.4472ZM21.6464 19.3536L22.6464 20.3536L23.3536 19.6464L22.3536 18.6464L21.6464 19.3536ZM21.0149 17.1213L21.5149 19.1213L22.4851 18.8787L21.9851 16.8787L21.0149 17.1213ZM47.1464 15.6464L46.1464 16.6464L46.8536 17.3536L47.8536 16.3536L47.1464 15.6464ZM49 15.5H47.5V16.5H49V15.5ZM50.3536 16.6464L49.3536 15.6464L48.6464 16.3536L49.6464 17.3536L50.3536 16.6464ZM50.5 19V17H49.5V19H50.5ZM49.3536 20.3536L50.3536 19.3536L49.6464 18.6464L48.6464 19.6464L49.3536 20.3536ZM47.5 20.5H49V19.5H47.5V20.5ZM46.1464 19.3536L47.1464 20.3536L47.8536 19.6464L46.8536 18.6464L46.1464 19.3536ZM46 17V19H47V17H46ZM65.916 14.2774L66.916 12.7774L66.084 12.2226L65.084 13.7226L65.916 14.2774ZM66 17V14H65V17H66ZM67.3536 18.1464L65.8536 16.6464L65.1464 17.3536L66.6464 18.8536L67.3536 18.1464ZM69 18H67V19H69V18ZM69.6464 17.1464L68.6464 18.1464L69.3536 18.8536L70.3536 17.8536L69.6464 17.1464ZM70.1464 16.6464L69.6464 17.1464L70.3536 17.8536L70.8536 17.3536L70.1464 16.6464ZM70 14V17H71V14H70ZM68.6464 12.8536L70.1464 14.3536L70.8536 13.6464L69.3536 12.1464L68.6464 12.8536ZM66.5 13H69V12H66.5V13ZM4.5779 23.0528L12.5107 35.5465L13.3549 35.0105L5.4221 22.5168L4.5779 23.0528ZM20.0422 27.6304L5.16829 22.314L4.83171 23.2556L19.7057 28.5721L20.0422 27.6304ZM20.3697 27.6013H19.874V28.6013H20.3697V27.6013ZM22.9656 24.3194L19.9908 27.7751L20.7487 28.4275L23.7235 24.9718L22.9656 24.3194ZM23.8403 24.1456H23.3445V25.1456H23.8403V24.1456ZM27.6637 27.747L24.1931 24.2913L23.4875 24.9999L26.9581 28.4556L27.6637 27.747ZM28.3025 27.6013H27.3109V28.6013H28.3025V27.6013ZM33.8213 17.7462L27.8717 27.8475L28.7333 28.355L34.6829 18.2538L33.8213 17.7462ZM34.7479 17.5H34.2521V18.5H34.7479V17.5ZM41.6148 27.8323L35.1694 17.731L34.3264 18.269L40.7718 28.3702L41.6148 27.8323ZM45.8654 24.2354L40.9074 27.6911L41.4792 28.5115L46.4372 25.0558L45.8654 24.2354ZM49.0365 27.8098L46.5575 24.3541L45.745 24.937L48.224 28.3927L49.0365 27.8098ZM63.8293 22.049L48.4596 27.6313L48.8009 28.5712L64.1707 22.989L63.8293 22.049ZM55.4854 35.5651L64.4097 22.8056L63.5903 22.2324L54.6659 34.9919L55.4854 35.5651ZM12.9328 35.7785H55.0756V34.7785H12.9328V35.7785ZM13.4244 37.1392V39H14.4244V37.1392H13.4244ZM55.0756 36.6392H13.9244V37.6392H55.0756V36.6392ZM55.5756 39V37.1392H54.5756V39H55.5756ZM13.9244 39.5H55.0756V38.5H13.9244V39.5ZM11.5 56.5H7V57.5H11.5V56.5ZM12 111.5V57H11V111.5H12ZM28 111H11.5V112H28V111ZM27.5 87.5V111.5H28.5V87.5H27.5ZM32.5 87H28V88H32.5V87ZM49.8956 109.194L32.8956 87.1943L32.1044 87.8057L49.1044 109.806L49.8956 109.194ZM53.2481 111.066L49.7481 109.066L49.2519 109.934L52.7519 111.934L53.2481 111.066ZM55.2236 112.053L53.2236 111.053L52.7764 111.947L54.7764 112.947L55.2236 112.053ZM56.6581 112.526L55.1581 112.026L54.8419 112.974L56.3419 113.474L56.6581 112.526ZM60.5 112.5H56.5V113.5H60.5V112.5ZM61.084 111.223L60.084 112.723L60.916 113.277L61.916 111.777L61.084 111.223ZM66.5968 103.704L61.0968 111.204L61.9032 111.796L67.4032 104.296L66.5968 103.704ZM66.5 103.5V104H67.5V103.5H66.5ZM66.1464 103.354L66.6464 103.854L67.3536 103.146L66.8536 102.646L66.1464 103.354ZM65.5 103.5H66.5V102.5H65.5V103.5ZM64.2764 102.947L65.2764 103.447L65.7236 102.553L64.7236 102.053L64.2764 102.947ZM61.1464 99.8536L64.1464 102.854L64.8536 102.146L61.8536 99.1464L61.1464 99.8536ZM58.6464 97.3536L61.1464 99.8536L61.8536 99.1464L59.3536 96.6464L58.6464 97.3536ZM50.1044 86.3057L58.6044 97.3057L59.3956 96.6943L50.8956 85.6943L50.1044 86.3057ZM50 85.5V86H51V85.5H50ZM53.3419 84.0257L50.3419 85.0257L50.6581 85.9743L53.6581 84.9743L53.3419 84.0257ZM55.2764 83.0528L53.2764 84.0528L53.7236 84.9472L55.7236 83.9472L55.2764 83.0528ZM57.7428 81.5713L55.2428 83.0713L55.7572 83.9287L58.2572 82.4287L57.7428 81.5713ZM60.1464 79.1464L57.6464 81.6464L58.3536 82.3536L60.8536 79.8536L60.1464 79.1464ZM61.6 77.2L60.1 79.2L60.9 79.8L62.4 77.8L61.6 77.2ZM62.5358 74.8143L61.5358 77.3143L62.4642 77.6857L63.4642 75.1857L62.5358 74.8143ZM63.0149 72.8787L62.5149 74.8787L63.4851 75.1213L63.9851 73.1213L63.0149 72.8787ZM63 72V73H64V72H63ZM63.5528 70.7764L63.0528 71.7764L63.9472 72.2236L64.4472 71.2236L63.5528 70.7764ZM63.5 61V71H64.5V61H63.5ZM63.0528 60.2236L63.5528 61.2236L64.4472 60.7764L63.9472 59.7764L63.0528 60.2236ZM62.5097 57.5981L63.0097 60.0981L63.9903 59.9019L63.4903 57.4019L62.5097 57.5981ZM61.5528 55.7236L62.5528 57.7236L63.4472 57.2764L62.4472 55.2764L61.5528 55.7236ZM60.0713 53.2572L61.5713 55.7572L62.4287 55.2428L60.9287 52.7428L60.0713 53.2572ZM58.1464 51.3536L60.1464 53.3536L60.8536 52.6464L58.8536 50.6464L58.1464 51.3536ZM56.2 49.9L58.2 51.4L58.8 50.6L56.8 49.1L56.2 49.9ZM53.7428 48.4287L56.2428 49.9287L56.7572 49.0713L54.2572 47.5713L53.7428 48.4287ZM51.7764 47.4472L53.7764 48.4472L54.2236 47.5528L52.2236 46.5528L51.7764 47.4472ZM50.3419 46.9743L51.8419 47.4743L52.1581 46.5257L50.6581 46.0257L50.3419 46.9743ZM47.4178 46.4932L50.4178 46.9932L50.5822 46.0068L47.5822 45.5068L47.4178 46.4932ZM43.438 45.9961L47.438 46.4961L47.562 45.5039L43.562 45.0039L43.438 45.9961ZM7 46H43.5V45H7V46ZM7.5 57V45.5H6.5V57H7.5Z" fill="#C7D7EC" mask="url(#path-1-inside-1_24_39)"/>
<path d="M39.8232 59.6768L39.8407 59.6943L39.8613 59.708L41.3197 60.6803L42.2734 62.1108L42.7628 63.5791L43.25 65.0406V70.4594L42.7815 71.865L41.3232 73.3232L39.8232 74.8232L38.865 75.7815L37.4301 76.2598L35.4692 76.75H26.25V58.25H37.4594L38.865 58.7185L39.8232 59.6768Z" fill="white" stroke="black" stroke-width="0.5"/>
</svg>
